<?xml version="1.0" encoding="UTF-8"?>
<svg id="Ebene_2" data-name="Ebene 2" xmlns="http://www.w3.org/2000/svg" xmlns:xlink="http://www.w3.org/1999/xlink" viewBox="0 0 781.57 575.5">
  <defs>
    <style>
      .cls-1 {
        fill: #00b3cb;
      }

      .cls-1, .cls-2, .cls-3, .cls-4, .cls-5 {
        stroke-width: 0px;
      }

      .cls-2 {
        fill: #03b4cb;
      }

      .cls-3 {
        fill: #19213c;
      }

      .cls-4 {
        fill: url(#Unbenannter_Verlauf_4);
      }

      .cls-5 {
        fill: #fff;
      }
    </style>
    <linearGradient id="Unbenannter_Verlauf_4" data-name="Unbenannter Verlauf 4" x1="390.78" y1="324.16" x2="390.78" y2="228.78" gradientUnits="userSpaceOnUse">
      <stop offset="0" stop-color="#00b3cb" stop-opacity="0"/>
      <stop offset="1" stop-color="#00b3cb" stop-opacity=".3"/>
    </linearGradient>
  </defs>
  <g id="Ebene_1-2" data-name="Ebene 1">
    <rect class="cls-5" width="781.57" height="575.5" rx="42.3" ry="42.3"/>
    <g>
      <g>
        <path class="cls-3" d="M117.29,411.2c-2.76,0-5.11-.5-7.04-1.5-1.93-1-3.66-2.46-5.19-4.39l3.9-3.9c.97,1.4,2.11,2.49,3.45,3.27,1.33.78,3.03,1.17,5.09,1.17,1.93,0,3.47-.4,4.62-1.2,1.15-.8,1.72-1.9,1.72-3.3,0-1.16-.3-2.11-.9-2.85-.6-.73-1.39-1.34-2.37-1.82-.98-.48-2.07-.92-3.25-1.3-1.18-.38-2.36-.82-3.55-1.3-1.18-.48-2.26-1.09-3.25-1.82-.98-.73-1.77-1.68-2.37-2.85-.6-1.16-.9-2.65-.9-4.44,0-2.06.51-3.82,1.52-5.27,1.01-1.45,2.39-2.56,4.12-3.32,1.73-.77,3.66-1.15,5.79-1.15,2.3,0,4.35.45,6.17,1.35,1.81.9,3.29,2.05,4.42,3.45l-3.89,3.9c-1-1.13-2.04-1.97-3.12-2.52-1.08-.55-2.32-.82-3.72-.82-1.73,0-3.09.35-4.07,1.05-.98.7-1.47,1.68-1.47,2.95,0,1.06.3,1.92.9,2.57.6.65,1.39,1.2,2.37,1.65.98.45,2.06.87,3.25,1.27,1.18.4,2.36.85,3.55,1.35,1.18.5,2.26,1.14,3.25,1.92.98.78,1.77,1.79,2.37,3.02.6,1.23.9,2.78.9,4.64,0,3.13-1.11,5.61-3.32,7.44-2.21,1.83-5.2,2.75-8.96,2.75Z"/>
        <path class="cls-3" d="M132.62,410.7l14.38-34.96h4l14.28,34.96h-6.19l-11.19-28.32h2.1l-11.29,28.32h-6.09ZM139.72,403.96v-4.99h18.53v4.99h-18.53Z"/>
        <path class="cls-3" d="M184.76,411.2c-2.63,0-4.99-.6-7.09-1.8-2.1-1.2-3.75-2.84-4.97-4.92-1.22-2.08-1.82-4.44-1.82-7.07v-21.67h5.74v21.62c0,1.7.36,3.17,1.07,4.42s1.69,2.21,2.92,2.9c1.23.68,2.61,1.02,4.15,1.02s2.95-.34,4.15-1.02c1.2-.68,2.15-1.65,2.85-2.9.7-1.25,1.05-2.7,1.05-4.37v-21.67h5.74v21.72c0,2.63-.6,4.98-1.8,7.04-1.2,2.06-2.83,3.69-4.89,4.89-2.07,1.2-4.43,1.8-7.09,1.8Z"/>
        <path class="cls-3" d="M206.73,410.7v-34.96h5.74v34.96h-5.74ZM210.68,410.7v-4.99h10.04c1.76,0,3.13-.55,4.1-1.65.97-1.1,1.45-2.36,1.45-3.79,0-.97-.22-1.86-.65-2.7-.43-.83-1.07-1.5-1.9-2-.83-.5-1.83-.75-3-.75h-10.04v-4.99h9.19c1.5,0,2.7-.38,3.6-1.15.9-.77,1.35-1.9,1.35-3.4s-.45-2.63-1.35-3.4c-.9-.77-2.1-1.15-3.6-1.15h-9.19v-4.99h9.34c2.36,0,4.33.43,5.89,1.3,1.57.87,2.73,1.98,3.5,3.35.77,1.37,1.15,2.83,1.15,4.39,0,1.83-.51,3.45-1.52,4.84-1.02,1.4-2.51,2.53-4.47,3.4l.45-1.8c2.2.9,3.91,2.17,5.14,3.8,1.23,1.63,1.85,3.55,1.85,5.74,0,1.8-.44,3.45-1.32,4.94-.88,1.5-2.18,2.71-3.89,3.62-1.72.92-3.82,1.37-6.32,1.37h-9.79Z"/>
        <path class="cls-3" d="M238.79,410.7v-34.96h5.74v34.96h-5.74ZM242.74,380.99v-5.24h19.33v5.24h-19.33ZM242.74,395.37v-5.04h17.88v5.04h-17.88ZM242.74,410.7v-5.24h19.58v5.24h-19.58Z"/>
        <path class="cls-3" d="M269.26,410.7v-34.96h5.74v34.96h-5.74ZM273.2,395.87v-4.75h8.84c1.76,0,3.14-.46,4.12-1.37.98-.92,1.47-2.19,1.47-3.82,0-1.47-.48-2.7-1.45-3.7-.97-1-2.33-1.5-4.1-1.5h-8.89v-4.99h9.14c2.2,0,4.13.44,5.79,1.32,1.66.88,2.95,2.08,3.87,3.6.92,1.52,1.37,3.24,1.37,5.17,0,2.03-.46,3.8-1.37,5.29-.92,1.5-2.21,2.66-3.87,3.5-1.67.83-3.6,1.25-5.79,1.25h-9.14ZM288.43,410.7l-12.24-15.18,5.34-1.95,14.13,17.13h-7.24Z"/>
        <path class="cls-3" d="M323.19,411.2c-2.4,0-4.49-.46-6.27-1.37-1.78-.92-3.16-2.18-4.15-3.8-.98-1.61-1.47-3.45-1.47-5.52s.57-3.98,1.72-5.64c1.15-1.66,2.84-3.01,5.07-4.05l2.55,3.35c-1.23.67-2.18,1.49-2.85,2.47s-1,2.22-1,3.72c0,1.2.28,2.21.82,3.05.55.83,1.32,1.47,2.32,1.92,1,.45,2.15.67,3.45.67,1.7,0,3.1-.35,4.22-1.05,1.11-.7,1.95-1.53,2.52-2.5l3.6,4.19c-.7.87-1.6,1.64-2.7,2.32-1.1.68-2.31,1.22-3.64,1.62-1.33.4-2.73.6-4.19.6ZM335.13,410.7l-16.58-18.13c-1.23-1.36-2.16-2.66-2.77-3.9-.62-1.23-.92-2.6-.92-4.09,0-1.76.43-3.35,1.3-4.77.87-1.42,2.05-2.54,3.55-3.37s3.21-1.25,5.14-1.25c1.47,0,2.8.24,4,.72,1.2.48,2.26,1.12,3.17,1.9.92.78,1.67,1.64,2.27,2.57l-3.95,3.5c-.73-1-1.52-1.81-2.37-2.45-.85-.63-1.89-.95-3.12-.95s-2.33.37-3.2,1.12c-.87.75-1.3,1.69-1.3,2.82s.23,2.07.7,2.8c.47.73,1.12,1.58,1.95,2.55l18.73,20.93h-6.59Z"/>
        <path class="cls-3" d="M356.1,410.7v-34.96h4l1.75,6.59v28.37h-5.74ZM380.32,410.7l-20.93-27.32.7-7.64,20.93,27.32-.7,7.64ZM380.32,410.7l-1.75-6.14v-28.82h5.74v34.96h-4Z"/>
        <path class="cls-3" d="M390.31,410.7l14.38-34.96h4l14.28,34.96h-6.19l-11.19-28.32h2.1l-11.29,28.32h-6.09ZM397.4,403.96v-4.99h18.53v4.99h-18.53Z"/>
        <path class="cls-3" d="M444.84,411.2c-2.53,0-4.87-.46-7.02-1.37-2.15-.92-4.02-2.2-5.62-3.85s-2.83-3.56-3.69-5.74c-.87-2.18-1.3-4.52-1.3-7.02s.43-4.84,1.3-7.02c.87-2.18,2.1-4.09,3.69-5.72s3.47-2.91,5.62-3.85c2.15-.93,4.49-1.4,7.02-1.4,2.83,0,5.28.47,7.34,1.4s3.9,2.2,5.49,3.8l-3.9,3.89c-1.03-1.13-2.29-2.01-3.77-2.65-1.48-.63-3.2-.95-5.17-.95-1.73,0-3.31.3-4.74.9-1.43.6-2.67,1.46-3.72,2.57-1.05,1.12-1.86,2.44-2.42,3.97-.57,1.53-.85,3.21-.85,5.04s.28,3.51.85,5.04c.57,1.53,1.37,2.86,2.42,3.97,1.05,1.11,2.29,1.97,3.72,2.57,1.43.6,3.01.9,4.74.9,2.13,0,3.94-.32,5.42-.97,1.48-.65,2.74-1.54,3.77-2.67l3.9,3.9c-1.6,1.63-3.48,2.91-5.64,3.84-2.16.93-4.64,1.4-7.44,1.4Z"/>
        <path class="cls-3" d="M464.07,410.7v-34.96h5.74v34.96h-5.74ZM468.02,395.22v-5.24h19.53v5.24h-19.53ZM486.29,410.7v-34.96h5.74v34.96h-5.74Z"/>
        <path class="cls-3" d="M500.63,410.7v-34.96h5.74v34.96h-5.74ZM504.57,395.22v-5.24h19.53v5.24h-19.53ZM522.85,410.7v-34.96h5.74v34.96h-5.74Z"/>
        <path class="cls-3" d="M534.58,410.7l14.38-34.96h4l14.28,34.96h-6.19l-11.19-28.32h2.1l-11.29,28.32h-6.09ZM541.68,403.96v-4.99h18.53v4.99h-18.53Z"/>
        <path class="cls-3" d="M573.24,410.7v-34.96h5.74v34.96h-5.74ZM577.18,410.7v-5.24h18.28v5.24h-18.28Z"/>
        <path class="cls-3" d="M594.81,380.99v-5.24h28.52v5.24h-28.52ZM606.2,410.7v-33.96h5.74v33.96h-5.74Z"/>
        <path class="cls-3" d="M629.32,410.7v-34.96h5.74v34.96h-5.74Z"/>
        <path class="cls-3" d="M659.43,411.2c-2.4,0-4.66-.47-6.79-1.4-2.13-.93-4-2.22-5.59-3.87-1.6-1.65-2.86-3.56-3.77-5.74-.92-2.18-1.37-4.52-1.37-7.02s.46-4.83,1.37-6.99c.92-2.16,2.18-4.07,3.8-5.72,1.61-1.65,3.51-2.93,5.69-3.85,2.18-.92,4.54-1.37,7.07-1.37,2.76,0,5.33.53,7.69,1.6,2.36,1.07,4.34,2.58,5.94,4.54l-3.9,3.9c-1.03-1.46-2.41-2.59-4.15-3.37-1.73-.78-3.6-1.17-5.59-1.17-2.4,0-4.5.52-6.32,1.57-1.81,1.05-3.22,2.51-4.22,4.37-1,1.86-1.5,4.03-1.5,6.49s.51,4.64,1.52,6.52c1.01,1.88,2.39,3.35,4.12,4.42,1.73,1.07,3.69,1.6,5.89,1.6,2.33,0,4.34-.42,6.02-1.27,1.68-.85,2.97-2.11,3.87-3.8.9-1.68,1.35-3.75,1.35-6.22l3.6,2.6h-14.93v-5.24h17.28v.8c0,4.16-.74,7.62-2.22,10.39-1.48,2.76-3.5,4.83-6.07,6.19-2.56,1.37-5.49,2.05-8.79,2.05Z"/>
      </g>
      <g>
        <g>
          <path class="cls-2" d="M337.13,210.59h.02c.1-6.5,5.41-11.76,11.93-11.76h20.59v-6.8h8.12v-17.14h3.32l-2.45-28.17c-39.11,5.85-69.1,39.58-69.1,80.32,0,24.29,10.67,46.08,27.56,60.97v-77.42Z"/>
          <path class="cls-2" d="M402.9,146.72l-2.45,28.17h3.32v17.14h8.12v6.8h20.59c6.52,0,11.83,5.26,11.93,11.76h.02v77.43c16.9-14.88,27.56-36.68,27.56-60.97,0-40.74-29.99-74.47-69.1-80.32Z"/>
        </g>
        <g>
          <path class="cls-4" d="M343.09,211.55h95.38v117.79c0,1.5-1.22,2.72-2.72,2.72h-89.94c-1.5,0-2.72-1.22-2.72-2.72v-117.79h0Z"/>
          <g>
            <polygon class="cls-5" points="362.23 237.27 359.95 229.45 357.67 237.27 359.95 245.1 362.23 237.27"/>
            <polygon class="cls-5" points="359.95 239.55 367.77 237.27 359.95 235 352.13 237.27 359.95 239.55"/>
          </g>
          <g>
            <polygon class="cls-5" points="415.94 279.25 412.73 268.24 409.53 279.25 412.73 290.26 415.94 279.25"/>
            <polygon class="cls-5" points="412.73 282.45 423.74 279.25 412.73 276.04 401.73 279.25 412.73 282.45"/>
          </g>
          <g>
            <polygon class="cls-5" points="411.09 239.74 409.53 234.39 407.97 239.74 409.53 245.1 411.09 239.74"/>
            <polygon class="cls-5" points="409.53 241.3 414.88 239.74 409.53 238.18 404.17 239.74 409.53 241.3"/>
          </g>
          <g>
            <polygon class="cls-5" points="363.16 276.04 362.23 272.84 361.3 276.04 362.23 279.25 363.16 276.04"/>
            <polygon class="cls-5" points="362.23 276.97 365.44 276.04 362.23 275.11 359.02 276.04 362.23 276.97"/>
          </g>
          <g>
            <polygon class="cls-5" points="421.45 257.11 420.51 253.9 419.58 257.11 420.51 260.31 421.45 257.11"/>
            <polygon class="cls-5" points="420.51 258.04 423.72 257.11 420.51 256.18 417.31 257.11 420.51 258.04"/>
          </g>
          <g>
            <polygon class="cls-5" points="379.57 259.26 378.01 253.9 376.45 259.26 378.01 264.61 379.57 259.26"/>
            <polygon class="cls-5" points="378.01 260.82 383.37 259.26 378.01 257.7 372.66 259.26 378.01 260.82"/>
          </g>
        </g>
        <path class="cls-3" d="M343.35,222.29h94.87c.98,0,1.78-.8,1.78-1.78v-8.19c0-5.13-4.16-9.29-9.29-9.29h-21.47c-.98,0-1.78-.8-1.78-1.78v-3.24c0-.98-.8-1.78-1.78-1.78h-4.56c-.98,0-1.78-.8-1.78-1.78v-13.58c0-.98-.8-1.78-1.78-1.78h0c-1.04,0-1.86-.89-1.77-1.94l3.43-39.54c.43-4.95-3.47-9.2-8.44-9.2h0c-4.97,0-8.86,4.25-8.44,9.2l3.43,39.54c.09,1.04-.73,1.94-1.77,1.94h0c-.98,0-1.78.8-1.78,1.78v13.58c0,.98-.8,1.78-1.78,1.78h-4.56c-.98,0-1.78.8-1.78,1.78v3.24c0,.98-.8,1.78-1.78,1.78h-21.47c-5.13,0-9.29,4.16-9.29,9.29v8.19c0,.98.8,1.78,1.78,1.78Z"/>
        <g>
          <path class="cls-3" d="M364.91,322.34c-2.18,0-4.08-.32-5.7-.95-1.62-.63-3.11-1.65-4.47-3.04l4.49-4.49c.93.89,1.92,1.56,2.95,2.03,1.03.47,2.13.7,3.31.7.98,0,1.72-.15,2.23-.45s.75-.71.75-1.24-.22-.96-.65-1.31c-.43-.35-1-.66-1.71-.93-.71-.27-1.49-.56-2.34-.84-.85-.29-1.7-.63-2.53-1.04-.84-.41-1.61-.9-2.32-1.49-.71-.59-1.28-1.32-1.71-2.19-.43-.87-.65-1.95-.65-3.22,0-1.65.39-3.08,1.19-4.28.79-1.2,1.9-2.11,3.34-2.75,1.44-.63,3.13-.95,5.07-.95s3.7.31,5.34.92,3,1.48,4.08,2.61l-4.53,4.49c-.79-.77-1.58-1.33-2.37-1.71-.79-.37-1.65-.56-2.59-.56-.74,0-1.34.12-1.78.36-.44.24-.66.6-.66,1.08,0,.5.22.92.65,1.24.43.32,1,.62,1.71.88.71.26,1.49.54,2.34.83s1.7.63,2.53,1.02c.84.39,1.61.9,2.32,1.51.71.61,1.28,1.37,1.71,2.28.43.91.65,2.01.65,3.31,0,2.61-.93,4.63-2.78,6.06-1.86,1.43-4.47,2.14-7.85,2.14Z"/>
          <path class="cls-2" d="M386.69,322.34c-1.73,0-3.23-.35-4.51-1.06-1.28-.71-2.28-1.66-2.98-2.86-.71-1.2-1.06-2.53-1.06-3.99,0-1.63.42-3.08,1.26-4.37.84-1.28,2.13-2.32,3.88-3.11l2.87,4.74c-.55.17-.95.46-1.2.86-.25.41-.38.84-.38,1.29,0,.36.08.71.25,1.04.17.34.42.61.75.83s.74.32,1.22.32c.41,0,.8-.1,1.19-.3.38-.2.77-.58,1.15-1.13l4.85,4.64c-.34.43-.86.89-1.56,1.37s-1.55.89-2.53,1.22-2.05.5-3.2.5ZM394.74,321.91l-11.36-12.54c-.91-1.03-1.55-2-1.92-2.91-.37-.91-.56-1.9-.56-2.98,0-1.32.34-2.55,1.02-3.7s1.63-2.08,2.84-2.8c1.21-.72,2.62-1.08,4.22-1.08,1.29,0,2.43.17,3.4.52s1.79.78,2.46,1.29c.67.52,1.16,1.02,1.47,1.53l-4.49,4.49c-.43-.6-.86-1-1.29-1.2s-.89-.31-1.37-.31c-.53,0-.95.15-1.28.45-.32.3-.49.65-.49,1.06,0,.26.07.54.2.83.13.29.33.59.59.9l14.66,16.46h-8.12Z"/>
          <path class="cls-3" d="M403.83,321.91v-25.59h5.03l2.16,5.39v20.2h-7.19ZM421.44,321.91l-14.84-18.65,2.26-6.94,14.84,18.65-2.26,6.94ZM421.44,321.91l-1.8-5.68v-19.91h7.19v25.59h-5.39Z"/>
        </g>
      </g>
      <g>
        <path class="cls-1" d="M244.3,447.09c-1.11,0-2.17-.22-3.16-.65-.99-.43-1.86-1.03-2.6-1.8s-1.33-1.65-1.75-2.67c-.42-1.01-.64-2.1-.64-3.26s.21-2.24.64-3.25c.43-1.01,1.01-1.89,1.76-2.66s1.63-1.36,2.64-1.79,2.11-.64,3.28-.64c1.28,0,2.47.25,3.57.74,1.1.5,2.02,1.2,2.76,2.11l-1.81,1.81c-.48-.68-1.12-1.2-1.93-1.57s-1.67-.55-2.6-.55c-1.11,0-2.09.24-2.93.73-.84.49-1.5,1.16-1.96,2.03-.46.87-.7,1.87-.7,3.02s.24,2.15.71,3.03c.47.87,1.11,1.56,1.91,2.05.8.5,1.72.74,2.74.74,1.08,0,2.01-.2,2.79-.59s1.38-.98,1.8-1.76c.42-.78.63-1.74.63-2.89l1.67,1.21h-6.94v-2.43h8.03v.37c0,1.93-.34,3.54-1.03,4.82s-1.63,2.24-2.82,2.88c-1.19.63-2.55.95-4.08.95Z"/>
        <path class="cls-1" d="M259.98,446.85v-16.24h2.67v16.24h-2.67ZM261.81,433.05v-2.43h8.98v2.43h-8.98ZM261.81,439.73v-2.34h8.3v2.34h-8.3ZM261.81,446.85v-2.43h9.09v2.43h-9.09Z"/>
        <path class="cls-1" d="M278.77,446.85v-16.24h2.67v16.24h-2.67ZM280.6,446.85v-2.32h4.66c.82,0,1.45-.25,1.9-.77.45-.51.67-1.1.67-1.76,0-.45-.1-.87-.3-1.25-.2-.39-.5-.7-.88-.93-.39-.23-.85-.35-1.39-.35h-4.66v-2.32h4.27c.7,0,1.25-.18,1.67-.53.42-.36.63-.88.63-1.58s-.21-1.22-.63-1.58c-.42-.36-.97-.53-1.67-.53h-4.27v-2.32h4.34c1.1,0,2.01.2,2.74.6s1.27.92,1.62,1.55c.36.63.53,1.31.53,2.04,0,.85-.24,1.6-.71,2.25s-1.16,1.18-2.08,1.58l.21-.84c1.02.42,1.82,1.01,2.39,1.76.57.76.86,1.65.86,2.67,0,.84-.2,1.6-.61,2.3-.41.7-1.01,1.26-1.81,1.68-.8.43-1.77.64-2.93.64h-4.55Z"/>
        <path class="cls-1" d="M297.09,446.85l6.68-16.24h1.86l6.63,16.24h-2.88l-5.2-13.15h.97l-5.24,13.15h-2.83ZM300.38,443.72v-2.32h8.6v2.32h-8.6ZM302.24,428.81c-.43,0-.79-.15-1.08-.44s-.43-.66-.43-1.09.14-.8.43-1.09.65-.44,1.08-.44.81.15,1.09.44.42.66.42,1.09-.14.8-.42,1.09-.64.44-1.09.44ZM307.11,428.81c-.43,0-.79-.15-1.08-.44s-.43-.66-.43-1.09.14-.8.43-1.09.65-.44,1.08-.44.81.15,1.09.44.42.66.42,1.09-.14.8-.42,1.09-.64.44-1.09.44Z"/>
        <path class="cls-1" d="M325.94,447.09c-1.22,0-2.32-.28-3.29-.84-.97-.56-1.74-1.32-2.31-2.28-.56-.97-.85-2.06-.85-3.28v-10.07h2.67v10.04c0,.79.17,1.47.5,2.05.33.58.78,1.03,1.36,1.35s1.21.47,1.93.47,1.37-.16,1.93-.47,1-.77,1.32-1.35c.32-.58.49-1.26.49-2.03v-10.07h2.67v10.09c0,1.22-.28,2.31-.83,3.27-.56.96-1.31,1.72-2.27,2.27s-2.06.84-3.29.84Z"/>
        <path class="cls-1" d="M340.79,446.85v-16.24h2.67v16.24h-2.67ZM342.62,446.85v-2.43h4.27c1.11,0,2.09-.24,2.93-.72s1.5-1.15,1.97-2.01c.47-.86.71-1.85.71-2.98s-.24-2.1-.72-2.95c-.48-.85-1.14-1.52-1.98-2-.84-.48-1.81-.72-2.91-.72h-4.27v-2.43h4.34c1.18,0,2.27.2,3.27.61s1.88.98,2.63,1.72c.75.73,1.33,1.59,1.75,2.57.42.98.63,2.05.63,3.21s-.21,2.21-.63,3.2c-.42.99-1,1.85-1.74,2.59-.74.73-1.62,1.31-2.62,1.72s-2.09.61-3.25.61h-4.38Z"/>
        <path class="cls-1" d="M363.05,446.85v-16.24h2.67v16.24h-2.67ZM364.89,433.05v-2.43h8.98v2.43h-8.98ZM364.89,439.73v-2.34h8.3v2.34h-8.3ZM364.89,446.85v-2.43h9.09v2.43h-9.09Z"/>
        <path class="cls-1" d="M381.84,446.85v-16.24h2.67v16.24h-2.67ZM383.67,439.96v-2.2h4.11c.82,0,1.46-.21,1.91-.64.46-.42.68-1.02.68-1.77,0-.68-.22-1.25-.67-1.72-.45-.46-1.08-.7-1.9-.7h-4.13v-2.32h4.25c1.02,0,1.92.2,2.69.61.77.41,1.37.97,1.8,1.67.43.7.64,1.5.64,2.4,0,.94-.21,1.76-.64,2.46s-1.02,1.24-1.8,1.62c-.77.39-1.67.58-2.69.58h-4.25ZM390.75,446.85l-5.68-7.05,2.48-.91,6.56,7.96h-3.36Z"/>
        <path class="cls-1" d="M401.19,446.85v-16.24h2.67v16.24h-2.67ZM403.02,433.05v-2.43h8.98v2.43h-8.98ZM403.02,439.73v-2.34h8.3v2.34h-8.3ZM403.02,446.85v-2.43h9.09v2.43h-9.09Z"/>
        <path class="cls-1" d="M419.97,446.85v-16.24h2.67v16.24h-2.67Z"/>
        <path class="cls-1" d="M431.27,446.85v-16.24h1.86l.81,3.06v13.17h-2.67ZM442.52,446.85l-9.72-12.69.32-3.55,9.72,12.69-.32,3.55ZM442.52,446.85l-.81-2.85v-13.38h2.67v16.24h-1.86Z"/>
        <path class="cls-1" d="M453,446.85v-16.24h2.67v16.24h-2.67Z"/>
        <path class="cls-1" d="M471.63,447.09c-1.11,0-2.17-.22-3.16-.65-.99-.43-1.86-1.03-2.6-1.8s-1.33-1.65-1.75-2.67c-.42-1.01-.64-2.1-.64-3.26s.21-2.24.64-3.25c.43-1.01,1.01-1.89,1.76-2.66s1.63-1.36,2.64-1.79,2.11-.64,3.28-.64c1.28,0,2.47.25,3.57.74,1.1.5,2.02,1.2,2.76,2.11l-1.81,1.81c-.48-.68-1.12-1.2-1.93-1.57s-1.67-.55-2.6-.55c-1.11,0-2.09.24-2.93.73-.84.49-1.5,1.16-1.96,2.03-.46.87-.7,1.87-.7,3.02s.24,2.15.71,3.03c.47.87,1.11,1.56,1.91,2.05.8.5,1.72.74,2.74.74,1.08,0,2.01-.2,2.79-.59s1.38-.98,1.8-1.76c.42-.78.63-1.74.63-2.89l1.67,1.21h-6.94v-2.43h8.03v.37c0,1.93-.34,3.54-1.03,4.82s-1.63,2.24-2.82,2.88c-1.19.63-2.55.95-4.08.95Z"/>
        <path class="cls-1" d="M493.57,447.09c-1.22,0-2.32-.28-3.29-.84-.97-.56-1.74-1.32-2.31-2.28-.56-.97-.85-2.06-.85-3.28v-10.07h2.67v10.04c0,.79.17,1.47.5,2.05.33.58.78,1.03,1.36,1.35s1.21.47,1.93.47,1.37-.16,1.93-.47,1-.77,1.32-1.35c.32-.58.49-1.26.49-2.03v-10.07h2.67v10.09c0,1.22-.28,2.31-.83,3.27-.56.96-1.31,1.72-2.27,2.27s-2.06.84-3.29.84Z"/>
        <path class="cls-1" d="M508.41,446.85v-16.24h1.86l.81,3.06v13.17h-2.67ZM519.66,446.85l-9.72-12.69.32-3.55,9.72,12.69-.32,3.55ZM519.66,446.85l-.81-2.85v-13.38h2.67v16.24h-1.86Z"/>
        <path class="cls-1" d="M537.48,447.09c-1.11,0-2.17-.22-3.16-.65-.99-.43-1.86-1.03-2.6-1.8s-1.33-1.65-1.75-2.67c-.42-1.01-.64-2.1-.64-3.26s.21-2.24.64-3.25c.43-1.01,1.01-1.89,1.76-2.66s1.63-1.36,2.64-1.79,2.11-.64,3.28-.64c1.28,0,2.47.25,3.57.74,1.1.5,2.02,1.2,2.76,2.11l-1.81,1.81c-.48-.68-1.12-1.2-1.93-1.57s-1.67-.55-2.6-.55c-1.11,0-2.09.24-2.93.73-.84.49-1.5,1.16-1.96,2.03-.46.87-.7,1.87-.7,3.02s.24,2.15.71,3.03c.47.87,1.11,1.56,1.91,2.05.8.5,1.72.74,2.74.74,1.08,0,2.01-.2,2.79-.59s1.38-.98,1.8-1.76c.42-.78.63-1.74.63-2.89l1.67,1.21h-6.94v-2.43h8.03v.37c0,1.93-.34,3.54-1.03,4.82-.69,1.28-1.63,2.24-2.82,2.88-1.19.63-2.55.95-4.08.95Z"/>
      </g>
    </g>
  </g>
</svg>