<?xml version="1.0" encoding="UTF-8"?>
<svg id="Ebene_1" data-name="Ebene 1" xmlns="http://www.w3.org/2000/svg" xmlns:xlink="http://www.w3.org/1999/xlink" viewBox="0 0 821.33 176.99">
  <defs>
    <style>
      .cls-1 {
        fill: #00b3cb;
      }

      .cls-1, .cls-2, .cls-3, .cls-4, .cls-5 {
        stroke-width: 0px;
      }

      .cls-2 {
        fill: #03b4cb;
      }

      .cls-3 {
        fill: #19213c;
      }

      .cls-4 {
        fill: url(#Unbenannter_Verlauf_4);
      }

      .cls-5 {
        fill: #fff;
      }
    </style>
    <linearGradient id="Unbenannter_Verlauf_4" data-name="Unbenannter Verlauf 4" x1="70.59" y1="170.13" x2="70.59" y2="87.23" gradientUnits="userSpaceOnUse">
      <stop offset="0" stop-color="#00b3cb" stop-opacity="0"/>
      <stop offset="1" stop-color="#00b3cb" stop-opacity=".3"/>
    </linearGradient>
  </defs>
  <g>
    <g>
      <path class="cls-2" d="M23.96,71.42h.01c.09-5.65,4.7-10.22,10.37-10.22h17.9v-5.91h7.06v-14.9h2.89l-2.13-24.48C26.07,20.99,0,50.31,0,85.72c0,21.11,9.27,40.05,23.96,52.99v-67.29Z"/>
      <path class="cls-2" d="M81.13,15.91l-2.13,24.48h2.89v14.9h7.06v5.91h17.9c5.67,0,10.28,4.57,10.37,10.22h.01v67.29c14.69-12.94,23.96-31.88,23.96-52.99,0-35.41-26.07-64.73-60.06-69.81Z"/>
    </g>
    <g>
      <path class="cls-4" d="M29.14,72.26h82.9v102.02c0,1.5-1.22,2.72-2.72,2.72H31.86c-1.5,0-2.72-1.22-2.72-2.72v-102.02h0Z"/>
      <g>
        <polygon class="cls-5" points="45.78 94.61 43.8 87.81 41.82 94.61 43.8 101.41 45.78 94.61"/>
        <polygon class="cls-5" points="43.8 96.59 50.59 94.61 43.8 92.63 37 94.61 43.8 96.59"/>
      </g>
      <g>
        <polygon class="cls-5" points="92.46 131.09 89.67 121.52 86.89 131.09 89.67 140.66 92.46 131.09"/>
        <polygon class="cls-5" points="89.67 133.88 99.24 131.09 89.67 128.3 80.1 131.09 89.67 133.88"/>
      </g>
      <g>
        <polygon class="cls-5" points="88.24 96.76 86.89 92.1 85.53 96.76 86.89 101.41 88.24 96.76"/>
        <polygon class="cls-5" points="86.89 98.11 91.54 96.76 86.89 95.4 82.23 96.76 86.89 98.11"/>
      </g>
      <g>
        <polygon class="cls-5" points="46.59 128.3 45.78 125.52 44.96 128.3 45.78 131.09 46.59 128.3"/>
        <polygon class="cls-5" points="45.78 129.12 48.56 128.3 45.78 127.49 42.99 128.3 45.78 129.12"/>
      </g>
      <g>
        <polygon class="cls-5" points="97.24 111.85 96.43 109.06 95.62 111.85 96.43 114.64 97.24 111.85"/>
        <polygon class="cls-5" points="96.43 112.66 99.22 111.85 96.43 111.04 93.65 111.85 96.43 112.66"/>
      </g>
      <g>
        <polygon class="cls-5" points="60.85 113.72 59.49 109.06 58.14 113.72 59.49 118.37 60.85 113.72"/>
        <polygon class="cls-5" points="59.49 115.07 64.15 113.72 59.49 112.36 54.84 113.72 59.49 115.07"/>
      </g>
    </g>
    <path class="cls-3" d="M29.37,81.58h82.46c.85,0,1.55-.69,1.55-1.55v-7.12c0-4.46-3.61-8.07-8.07-8.07h-18.66c-.85,0-1.55-.69-1.55-1.55v-2.81c0-.85-.69-1.55-1.55-1.55h-3.97c-.85,0-1.55-.69-1.55-1.55v-11.8c0-.85-.69-1.55-1.55-1.55h0c-.91,0-1.62-.78-1.54-1.68l2.98-34.36c.37-4.3-3.02-8-7.33-8h0c-4.32,0-7.7,3.7-7.33,8l2.98,34.36c.08.9-.63,1.68-1.54,1.68h0c-.85,0-1.55.69-1.55,1.55v11.8c0,.85-.69,1.55-1.55,1.55h-3.97c-.85,0-1.55.69-1.55,1.55v2.81c0,.85-.69,1.55-1.55,1.55h-18.66c-4.46,0-8.07,3.61-8.07,8.07v7.12c0,.85.69,1.55,1.55,1.55Z"/>
    <g>
      <path class="cls-3" d="M48.1,168.54c-1.89,0-3.55-.28-4.95-.83-1.41-.55-2.7-1.43-3.89-2.64l3.9-3.91c.81.77,1.67,1.36,2.56,1.77.9.41,1.85.61,2.87.61.85,0,1.5-.13,1.94-.39s.66-.62.66-1.08-.19-.84-.56-1.14c-.37-.3-.87-.57-1.48-.81-.61-.24-1.29-.48-2.03-.73-.74-.25-1.47-.55-2.2-.91-.73-.35-1.4-.79-2.01-1.3-.62-.51-1.11-1.15-1.48-1.91-.37-.76-.56-1.69-.56-2.8,0-1.44.34-2.68,1.03-3.72.69-1.04,1.66-1.84,2.91-2.39,1.25-.55,2.72-.83,4.4-.83s3.21.27,4.64.8,2.61,1.29,3.55,2.26l-3.94,3.9c-.69-.67-1.37-1.16-2.06-1.48-.69-.32-1.44-.48-2.25-.48-.65,0-1.16.1-1.55.31-.39.21-.58.52-.58.94,0,.44.19.8.56,1.08.37.28.87.54,1.48.77.61.23,1.29.47,2.03.72s1.47.55,2.2.89c.73.34,1.4.78,2.01,1.31.61.53,1.11,1.19,1.48,1.98.37.79.56,1.75.56,2.87,0,2.27-.81,4.02-2.42,5.26-1.61,1.24-3.89,1.86-6.83,1.86Z"/>
      <path class="cls-2" d="M67.03,168.54c-1.5,0-2.81-.31-3.92-.92-1.11-.61-1.98-1.44-2.59-2.48-.61-1.04-.92-2.2-.92-3.47,0-1.42.36-2.68,1.09-3.8.73-1.11,1.85-2.01,3.37-2.7l2.5,4.12c-.48.15-.83.4-1.05.75-.22.35-.33.73-.33,1.12,0,.31.07.62.22.91.15.29.36.53.66.72s.65.28,1.06.28c.35,0,.7-.09,1.03-.27.33-.18.67-.51,1-.98l4.22,4.03c-.29.37-.74.77-1.36,1.19s-1.35.77-2.2,1.06-1.78.44-2.78.44ZM74.03,168.17l-9.87-10.9c-.79-.9-1.35-1.74-1.67-2.53-.32-.79-.48-1.66-.48-2.59,0-1.14.3-2.22.89-3.22s1.42-1.81,2.47-2.44c1.05-.62,2.27-.94,3.67-.94,1.12,0,2.11.15,2.95.45s1.56.68,2.14,1.12c.58.45,1.01.89,1.28,1.33l-3.9,3.9c-.37-.52-.75-.87-1.12-1.05s-.77-.27-1.19-.27c-.46,0-.83.13-1.11.39-.28.26-.42.57-.42.92,0,.23.06.47.17.72.11.25.29.51.51.78l12.74,14.31h-7.06Z"/>
      <path class="cls-3" d="M81.93,168.17v-22.24h4.37l1.87,4.68v17.55h-6.25ZM97.24,168.17l-12.9-16.21,1.97-6.03,12.9,16.21-1.97,6.03ZM97.24,168.17l-1.56-4.93v-17.31h6.25v22.24h-4.69Z"/>
    </g>
  </g>
  <g>
    <g>
      <path class="cls-3" d="M190.86,96.83c-3.12,0-5.76-.56-7.94-1.69-2.18-1.13-4.13-2.78-5.86-4.95l4.39-4.39c1.09,1.58,2.38,2.81,3.88,3.69,1.5.88,3.42,1.32,5.74,1.32,2.18,0,3.91-.45,5.21-1.35,1.3-.9,1.94-2.14,1.94-3.72,0-1.31-.34-2.38-1.01-3.21-.68-.82-1.57-1.51-2.67-2.05-1.11-.54-2.33-1.03-3.66-1.46-1.33-.43-2.66-.92-4-1.46-1.33-.54-2.55-1.23-3.66-2.06-1.11-.82-2-1.89-2.68-3.21-.68-1.31-1.01-2.98-1.01-5.01,0-2.33.57-4.31,1.72-5.94,1.14-1.63,2.69-2.88,4.65-3.74,1.95-.86,4.13-1.3,6.53-1.3,2.59,0,4.91.51,6.95,1.52,2.04,1.01,3.71,2.31,4.98,3.88l-4.39,4.39c-1.13-1.28-2.3-2.22-3.52-2.84-1.22-.62-2.62-.93-4.19-.93-1.95,0-3.48.39-4.59,1.18-1.11.79-1.66,1.9-1.66,3.32,0,1.2.34,2.17,1.01,2.9.68.73,1.57,1.35,2.68,1.86,1.11.51,2.33.99,3.66,1.44,1.33.45,2.66.96,4,1.52,1.33.56,2.55,1.29,3.66,2.17,1.11.88,2,2.02,2.67,3.41.68,1.39,1.01,3.13,1.01,5.24,0,3.53-1.25,6.33-3.74,8.39-2.5,2.06-5.87,3.1-10.11,3.1Z"/>
      <path class="cls-3" d="M208.14,96.26l16.21-39.41h4.5l16.1,39.41h-6.98l-12.61-31.92h2.36l-12.72,31.92h-6.87ZM216.14,88.66v-5.63h20.89v5.63h-20.89Z"/>
      <path class="cls-3" d="M266.92,96.83c-2.97,0-5.63-.68-7.99-2.03-2.37-1.35-4.23-3.2-5.6-5.55-1.37-2.34-2.06-5-2.06-7.97v-24.44h6.47v24.38c0,1.91.4,3.57,1.21,4.98s1.91,2.5,3.29,3.27c1.39.77,2.95,1.15,4.67,1.15s3.32-.38,4.67-1.15c1.35-.77,2.42-1.86,3.21-3.27.79-1.41,1.18-3.05,1.18-4.93v-24.44h6.47v24.49c0,2.97-.68,5.61-2.03,7.94-1.35,2.33-3.19,4.17-5.52,5.52-2.33,1.35-4.99,2.03-7.99,2.03Z"/>
      <path class="cls-3" d="M291.7,96.26v-39.41h6.47v39.41h-6.47ZM296.15,96.26v-5.63h11.32c1.99,0,3.53-.62,4.62-1.86,1.09-1.24,1.63-2.66,1.63-4.28,0-1.09-.25-2.1-.73-3.04-.49-.94-1.2-1.69-2.14-2.25-.94-.56-2.06-.84-3.38-.84h-11.32v-5.63h10.36c1.69,0,3.04-.43,4.05-1.3,1.01-.86,1.52-2.14,1.52-3.83s-.51-2.97-1.52-3.83c-1.01-.86-2.37-1.3-4.05-1.3h-10.36v-5.63h10.53c2.66,0,4.88.49,6.64,1.46,1.76.98,3.08,2.23,3.94,3.77.86,1.54,1.3,3.19,1.3,4.95,0,2.06-.57,3.88-1.72,5.46-1.15,1.58-2.83,2.85-5.04,3.83l.51-2.03c2.48,1.01,4.41,2.44,5.8,4.28,1.39,1.84,2.08,4,2.08,6.47,0,2.03-.5,3.88-1.49,5.57-.99,1.69-2.46,3.05-4.39,4.08-1.93,1.03-4.31,1.55-7.12,1.55h-11.04Z"/>
      <path class="cls-3" d="M327.84,96.26v-39.41h6.47v39.41h-6.47ZM332.29,62.76v-5.91h21.79v5.91h-21.79ZM332.29,78.98v-5.69h20.16v5.69h-20.16ZM332.29,96.26v-5.91h22.07v5.91h-22.07Z"/>
      <path class="cls-3" d="M362.19,96.26v-39.41h6.47v39.41h-6.47ZM366.63,79.54v-5.35h9.97c1.99,0,3.54-.52,4.65-1.55,1.11-1.03,1.66-2.47,1.66-4.31,0-1.65-.54-3.04-1.63-4.17-1.09-1.13-2.63-1.69-4.62-1.69h-10.02v-5.63h10.3c2.48,0,4.65.5,6.53,1.49,1.88.99,3.33,2.35,4.36,4.05,1.03,1.71,1.55,3.65,1.55,5.83,0,2.29-.52,4.28-1.55,5.97-1.03,1.69-2.49,3-4.36,3.94-1.88.94-4.05,1.41-6.53,1.41h-10.3ZM383.81,96.26l-13.79-17.12,6.02-2.2,15.93,19.31h-8.16Z"/>
      <path class="cls-3" d="M422.99,96.83c-2.7,0-5.06-.52-7.07-1.55-2.01-1.03-3.57-2.46-4.67-4.28-1.11-1.82-1.66-3.89-1.66-6.22s.65-4.49,1.94-6.36,3.2-3.4,5.71-4.56l2.87,3.77c-1.39.75-2.46,1.68-3.21,2.79s-1.13,2.51-1.13,4.19c0,1.35.31,2.5.93,3.43.62.94,1.49,1.66,2.62,2.17,1.13.51,2.42.76,3.88.76,1.91,0,3.5-.4,4.76-1.18,1.26-.79,2.2-1.73,2.84-2.82l4.05,4.73c-.79.98-1.8,1.85-3.04,2.62-1.24.77-2.61,1.38-4.11,1.83-1.5.45-3.08.68-4.73.68ZM436.45,96.26l-18.69-20.44c-1.39-1.54-2.43-3-3.13-4.39-.69-1.39-1.04-2.93-1.04-4.62,0-1.99.49-3.78,1.46-5.38.98-1.6,2.31-2.86,4-3.8,1.69-.94,3.62-1.41,5.8-1.41,1.65,0,3.15.27,4.5.82,1.35.54,2.54,1.26,3.58,2.14,1.03.88,1.89,1.85,2.56,2.9l-4.45,3.94c-.83-1.13-1.72-2.05-2.67-2.76-.96-.71-2.13-1.07-3.52-1.07s-2.63.42-3.6,1.27c-.98.85-1.46,1.91-1.46,3.18s.26,2.33.79,3.15c.53.83,1.26,1.78,2.2,2.87l21.11,23.59h-7.43Z"/>
      <path class="cls-3" d="M460.1,96.26v-39.41h4.5l1.97,7.43v31.98h-6.47ZM487.4,96.26l-23.59-30.8.79-8.62,23.59,30.8-.79,8.61ZM487.4,96.26l-1.97-6.92v-32.49h6.47v39.41h-4.5Z"/>
      <path class="cls-3" d="M498.66,96.26l16.21-39.41h4.5l16.1,39.41h-6.98l-12.61-31.92h2.37l-12.72,31.92h-6.87ZM506.66,88.66v-5.63h20.89v5.63h-20.89Z"/>
      <path class="cls-3" d="M560.14,96.83c-2.85,0-5.49-.52-7.91-1.55-2.42-1.03-4.53-2.48-6.33-4.34s-3.19-4.02-4.17-6.47c-.98-2.46-1.46-5.1-1.46-7.91s.49-5.45,1.46-7.91c.98-2.46,2.36-4.61,4.17-6.45s3.91-3.28,6.33-4.34c2.42-1.05,5.06-1.58,7.91-1.58,3.19,0,5.95.53,8.28,1.58,2.33,1.05,4.39,2.48,6.19,4.28l-4.39,4.39c-1.16-1.27-2.58-2.27-4.25-2.98-1.67-.71-3.61-1.07-5.83-1.07-1.95,0-3.73.34-5.35,1.01-1.61.68-3.01,1.64-4.19,2.9-1.18,1.26-2.09,2.75-2.73,4.48-.64,1.73-.96,3.62-.96,5.69s.32,3.96.96,5.69c.64,1.73,1.55,3.22,2.73,4.48,1.18,1.26,2.58,2.22,4.19,2.9,1.61.68,3.4,1.01,5.35,1.01,2.4,0,4.44-.36,6.11-1.1,1.67-.73,3.09-1.74,4.25-3.01l4.39,4.39c-1.8,1.84-3.92,3.28-6.36,4.33-2.44,1.05-5.24,1.58-8.39,1.58Z"/>
      <path class="cls-3" d="M581.82,96.26v-39.41h6.47v39.41h-6.47ZM586.27,78.81v-5.91h22.01v5.91h-22.01ZM606.88,96.26v-39.41h6.47v39.41h-6.47Z"/>
      <path class="cls-3" d="M623.03,96.26v-39.41h6.47v39.41h-6.47ZM627.48,78.81v-5.91h22.01v5.91h-22.01ZM648.09,96.26v-39.41h6.47v39.41h-6.47Z"/>
      <path class="cls-3" d="M661.32,96.26l16.21-39.41h4.5l16.1,39.41h-6.98l-12.61-31.92h2.36l-12.72,31.92h-6.87ZM669.31,88.66v-5.63h20.89v5.63h-20.89Z"/>
      <path class="cls-3" d="M704.9,96.26v-39.41h6.47v39.41h-6.47ZM709.34,96.26v-5.91h20.61v5.91h-20.61Z"/>
      <path class="cls-3" d="M729.22,62.76v-5.91h32.15v5.91h-32.15ZM742.06,96.26v-38.29h6.47v38.29h-6.47Z"/>
      <path class="cls-3" d="M768.12,96.26v-39.41h6.47v39.41h-6.47Z"/>
      <path class="cls-3" d="M802.07,96.83c-2.7,0-5.26-.53-7.66-1.58-2.4-1.05-4.5-2.51-6.31-4.36s-3.22-4.02-4.25-6.47c-1.03-2.46-1.55-5.1-1.55-7.91s.52-5.44,1.55-7.88c1.03-2.44,2.46-4.59,4.28-6.45,1.82-1.86,3.96-3.3,6.42-4.34,2.46-1.03,5.11-1.55,7.97-1.55,3.11,0,6.01.6,8.67,1.8,2.66,1.2,4.9,2.91,6.7,5.12l-4.39,4.39c-1.16-1.65-2.72-2.92-4.67-3.8-1.95-.88-4.05-1.32-6.31-1.32-2.7,0-5.08.59-7.12,1.77-2.05,1.18-3.63,2.83-4.76,4.93-1.13,2.1-1.69,4.54-1.69,7.32s.57,5.23,1.72,7.35c1.14,2.12,2.69,3.78,4.65,4.98,1.95,1.2,4.17,1.8,6.64,1.8,2.63,0,4.89-.48,6.78-1.44,1.9-.96,3.35-2.38,4.36-4.28,1.01-1.89,1.52-4.23,1.52-7.01l4.05,2.93h-16.83v-5.91h19.48v.9c0,4.69-.84,8.6-2.51,11.71-1.67,3.12-3.95,5.44-6.84,6.98-2.89,1.54-6.19,2.31-9.91,2.31Z"/>
    </g>
    <g>
      <path class="cls-1" d="M186.24,137.28c-1.26,0-2.44-.24-3.56-.73-1.12-.49-2.09-1.16-2.93-2.03s-1.49-1.87-1.97-3.01c-.48-1.14-.72-2.37-.72-3.67s.24-2.53.72-3.66c.48-1.13,1.14-2.13,1.99-2.99.85-.86,1.84-1.53,2.98-2.01s2.37-.72,3.7-.72c1.45,0,2.79.28,4.03.84,1.24.56,2.27,1.35,3.11,2.38l-2.04,2.04c-.54-.77-1.26-1.36-2.17-1.77s-1.88-.62-2.93-.62c-1.25,0-2.36.27-3.31.82-.95.55-1.69,1.31-2.21,2.29-.52.98-.78,2.11-.78,3.4s.26,2.43.8,3.41c.53.99,1.25,1.76,2.16,2.31.91.56,1.93.84,3.09.84,1.22,0,2.27-.22,3.15-.67s1.56-1.11,2.03-1.99c.47-.88.71-1.97.71-3.26l1.88,1.36h-7.82v-2.75h9.05v.42c0,2.18-.39,3.99-1.16,5.44-.78,1.45-1.83,2.53-3.18,3.24-1.34.72-2.88,1.07-4.6,1.07Z"/>
      <path class="cls-1" d="M203.92,137.02v-18.3h3.01v18.3h-3.01ZM205.99,121.46v-2.75h10.12v2.75h-10.12ZM205.99,128.99v-2.64h9.36v2.64h-9.36ZM205.99,137.02v-2.75h10.25v2.75h-10.25Z"/>
      <path class="cls-1" d="M225.1,137.02v-18.3h3.01v18.3h-3.01ZM227.17,137.02v-2.62h5.26c.92,0,1.64-.29,2.14-.86.51-.57.76-1.24.76-1.99,0-.51-.11-.98-.34-1.41-.23-.44-.56-.79-.99-1.05-.44-.26-.96-.39-1.57-.39h-5.26v-2.62h4.81c.79,0,1.41-.2,1.88-.6.47-.4.71-.99.71-1.78s-.24-1.38-.71-1.78c-.47-.4-1.1-.6-1.88-.6h-4.81v-2.61h4.89c1.24,0,2.27.23,3.09.68s1.43,1.04,1.83,1.75c.4.72.6,1.48.6,2.3,0,.96-.27,1.8-.8,2.54s-1.31,1.32-2.34,1.78l.24-.94c1.15.47,2.05,1.13,2.69,1.99.64.85.97,1.86.97,3.01,0,.94-.23,1.8-.69,2.59-.46.79-1.14,1.42-2.04,1.9-.9.48-2,.72-3.31.72h-5.13Z"/>
      <path class="cls-1" d="M245.76,137.02l7.53-18.3h2.09l7.48,18.3h-3.24l-5.86-14.83h1.1l-5.91,14.83h-3.19ZM249.47,133.49v-2.61h9.7v2.61h-9.7ZM251.56,116.67c-.49,0-.89-.17-1.22-.5s-.48-.74-.48-1.23.16-.9.48-1.23.73-.5,1.22-.5.92.17,1.23.5.47.74.47,1.23-.16.9-.47,1.23-.72.5-1.23.5ZM257.06,116.67c-.49,0-.89-.17-1.22-.5s-.48-.74-.48-1.23.16-.9.48-1.23.73-.5,1.22-.5.92.17,1.23.5.47.74.47,1.23-.16.9-.47,1.23-.72.5-1.23.5Z"/>
      <path class="cls-1" d="M278.29,137.28c-1.38,0-2.61-.31-3.71-.94-1.1-.63-1.97-1.49-2.6-2.58-.64-1.09-.95-2.32-.95-3.7v-11.35h3.01v11.32c0,.89.19,1.66.56,2.31.37.65.88,1.16,1.53,1.52s1.37.54,2.17.54,1.54-.18,2.17-.54,1.12-.86,1.49-1.52c.37-.65.55-1.42.55-2.29v-11.35h3.01v11.37c0,1.38-.31,2.61-.94,3.69-.63,1.08-1.48,1.93-2.56,2.56s-2.32.94-3.71.94Z"/>
      <path class="cls-1" d="M295.03,137.02v-18.3h3.01v18.3h-3.01ZM297.09,137.02v-2.75h4.81c1.26,0,2.36-.27,3.31-.81s1.69-1.29,2.22-2.26c.53-.97.8-2.09.8-3.36s-.27-2.36-.81-3.32c-.54-.96-1.29-1.71-2.24-2.25-.95-.54-2.05-.81-3.28-.81h-4.81v-2.75h4.89c1.32,0,2.55.23,3.69.69s2.12,1.11,2.97,1.94c.84.83,1.5,1.8,1.97,2.9.47,1.11.71,2.31.71,3.62s-.24,2.49-.71,3.61c-.47,1.12-1.12,2.09-1.96,2.92-.84.83-1.82,1.47-2.95,1.94s-2.35.69-3.66.69h-4.94Z"/>
      <path class="cls-1" d="M320.13,137.02v-18.3h3.01v18.3h-3.01ZM322.19,121.46v-2.75h10.12v2.75h-10.12ZM322.19,128.99v-2.64h9.36v2.64h-9.36ZM322.19,137.02v-2.75h10.25v2.75h-10.25Z"/>
      <path class="cls-1" d="M341.31,137.02v-18.3h3.01v18.3h-3.01ZM343.38,129.25v-2.48h4.63c.92,0,1.64-.24,2.16-.72.51-.48.77-1.15.77-2,0-.77-.25-1.41-.76-1.93-.51-.52-1.22-.79-2.14-.79h-4.66v-2.61h4.79c1.15,0,2.16.23,3.03.69.87.46,1.55,1.09,2.03,1.88.48.79.72,1.7.72,2.71,0,1.06-.24,1.99-.72,2.77s-1.15,1.39-2.03,1.83c-.87.44-1.88.65-3.03.65h-4.79ZM351.35,137.02l-6.41-7.95,2.8-1.02,7.4,8.97h-3.79Z"/>
      <path class="cls-1" d="M363.12,137.02v-18.3h3.01v18.3h-3.01ZM365.18,121.46v-2.75h10.12v2.75h-10.12ZM365.18,128.99v-2.64h9.36v2.64h-9.36ZM365.18,137.02v-2.75h10.25v2.75h-10.25Z"/>
      <path class="cls-1" d="M384.3,137.02v-18.3h3.01v18.3h-3.01Z"/>
      <path class="cls-1" d="M397.03,137.02v-18.3h2.09l.92,3.45v14.85h-3.01ZM409.72,137.02l-10.96-14.3.37-4,10.96,14.3-.37,4ZM409.72,137.02l-.92-3.22v-15.09h3.01v18.3h-2.09Z"/>
      <path class="cls-1" d="M421.54,137.02v-18.3h3.01v18.3h-3.01Z"/>
      <path class="cls-1" d="M442.54,137.28c-1.26,0-2.44-.24-3.56-.73-1.12-.49-2.09-1.16-2.93-2.03s-1.49-1.87-1.97-3.01c-.48-1.14-.72-2.37-.72-3.67s.24-2.53.72-3.66c.48-1.13,1.14-2.13,1.99-2.99s1.84-1.53,2.98-2.01,2.37-.72,3.7-.72c1.45,0,2.79.28,4.03.84,1.24.56,2.27,1.35,3.11,2.38l-2.04,2.04c-.54-.77-1.26-1.36-2.17-1.77s-1.88-.62-2.93-.62c-1.25,0-2.36.27-3.31.82-.95.55-1.69,1.31-2.21,2.29-.52.98-.78,2.11-.78,3.4s.26,2.43.8,3.41c.53.99,1.25,1.76,2.16,2.31.91.56,1.93.84,3.09.84,1.22,0,2.27-.22,3.15-.67s1.56-1.11,2.03-1.99c.47-.88.71-1.97.71-3.26l1.88,1.36h-7.82v-2.75h9.05v.42c0,2.18-.39,3.99-1.16,5.44-.78,1.45-1.83,2.53-3.18,3.24-1.34.72-2.88,1.07-4.6,1.07Z"/>
      <path class="cls-1" d="M467.27,137.28c-1.38,0-2.61-.31-3.71-.94-1.1-.63-1.97-1.49-2.6-2.58-.64-1.09-.95-2.32-.95-3.7v-11.35h3.01v11.32c0,.89.19,1.66.56,2.31.37.65.88,1.16,1.53,1.52s1.37.54,2.17.54,1.54-.18,2.17-.54,1.12-.86,1.49-1.52c.37-.65.55-1.42.55-2.29v-11.35h3.01v11.37c0,1.38-.31,2.61-.94,3.69-.63,1.08-1.48,1.93-2.56,2.56s-2.32.94-3.71.94Z"/>
      <path class="cls-1" d="M484.01,137.02v-18.3h2.09l.92,3.45v14.85h-3.01ZM496.69,137.02l-10.96-14.3.37-4,10.96,14.3-.37,4ZM496.69,137.02l-.92-3.22v-15.09h3.01v18.3h-2.09Z"/>
      <path class="cls-1" d="M516.77,137.28c-1.26,0-2.44-.24-3.56-.73-1.12-.49-2.09-1.16-2.93-2.03-.84-.86-1.49-1.87-1.97-3.01-.48-1.14-.72-2.37-.72-3.67s.24-2.53.72-3.66c.48-1.13,1.14-2.13,1.99-2.99.85-.86,1.84-1.53,2.98-2.01s2.37-.72,3.7-.72c1.45,0,2.79.28,4.03.84,1.24.56,2.27,1.35,3.11,2.38l-2.04,2.04c-.54-.77-1.26-1.36-2.17-1.77s-1.88-.62-2.93-.62c-1.25,0-2.36.27-3.31.82-.95.55-1.69,1.31-2.21,2.29-.52.98-.78,2.11-.78,3.4s.26,2.43.8,3.41c.53.99,1.25,1.76,2.16,2.31.91.56,1.93.84,3.09.84,1.22,0,2.27-.22,3.15-.67s1.56-1.11,2.03-1.99c.47-.88.71-1.97.71-3.26l1.88,1.36h-7.82v-2.75h9.05v.42c0,2.18-.39,3.99-1.16,5.44-.78,1.45-1.83,2.53-3.18,3.24-1.34.72-2.88,1.07-4.6,1.07Z"/>
    </g>
  </g>
</svg>