<?xml version="1.0" encoding="UTF-8"?>
<svg id="Ebene_2" data-name="Ebene 2" xmlns="http://www.w3.org/2000/svg" xmlns:xlink="http://www.w3.org/1999/xlink" viewBox="0 0 644.26 359.27">
  <defs>
    <style>
      .cls-1 {
        fill: #00b3cb;
      }

      .cls-1, .cls-2, .cls-3, .cls-4, .cls-5 {
        stroke-width: 0px;
      }

      .cls-2 {
        fill: #03b4cb;
      }

      .cls-3 {
        fill: #19213c;
      }

      .cls-4 {
        fill: url(#Unbenannter_Verlauf_4);
      }

      .cls-5 {
        fill: #fff;
      }
    </style>
    <linearGradient id="Unbenannter_Verlauf_4" data-name="Unbenannter Verlauf 4" x1="322.13" y1="220.68" x2="322.13" y2="113.15" gradientUnits="userSpaceOnUse">
      <stop offset="0" stop-color="#00b3cb" stop-opacity="0"/>
      <stop offset="1" stop-color="#00b3cb" stop-opacity=".3"/>
    </linearGradient>
  </defs>
  <g id="Ebene_1-2" data-name="Ebene 1">
    <g>
      <g>
        <path class="cls-3" d="M13.79,318.81c-3.12,0-5.76-.56-7.94-1.69-2.18-1.13-4.13-2.78-5.86-4.95l4.39-4.39c1.09,1.58,2.38,2.81,3.88,3.69,1.5.88,3.42,1.32,5.74,1.32,2.18,0,3.91-.45,5.21-1.35,1.3-.9,1.94-2.14,1.94-3.72,0-1.31-.34-2.38-1.01-3.21-.68-.82-1.57-1.51-2.67-2.05-1.11-.54-2.33-1.03-3.66-1.46-1.33-.43-2.66-.92-4-1.46-1.33-.54-2.55-1.23-3.66-2.06-1.11-.82-2-1.89-2.68-3.21-.68-1.31-1.01-2.98-1.01-5.01,0-2.33.57-4.31,1.72-5.94,1.14-1.63,2.69-2.88,4.65-3.74,1.95-.86,4.13-1.3,6.53-1.3,2.59,0,4.91.51,6.95,1.52,2.04,1.01,3.71,2.31,4.98,3.88l-4.39,4.39c-1.13-1.28-2.3-2.22-3.52-2.84-1.22-.62-2.62-.93-4.19-.93-1.95,0-3.48.39-4.59,1.18-1.11.79-1.66,1.9-1.66,3.32,0,1.2.34,2.17,1.01,2.9.68.73,1.57,1.35,2.68,1.86,1.11.51,2.33.99,3.66,1.44,1.33.45,2.66.96,4,1.52,1.33.56,2.55,1.29,3.66,2.17,1.11.88,2,2.02,2.67,3.41.68,1.39,1.01,3.13,1.01,5.24,0,3.53-1.25,6.33-3.74,8.39-2.5,2.06-5.87,3.1-10.11,3.1Z"/>
        <path class="cls-3" d="M31.08,318.25l16.21-39.41h4.5l16.1,39.41h-6.98l-12.61-31.92h2.36l-12.72,31.92h-6.87ZM39.07,310.65v-5.63h20.89v5.63h-20.89Z"/>
        <path class="cls-3" d="M89.86,318.81c-2.97,0-5.63-.68-7.99-2.03-2.37-1.35-4.23-3.2-5.6-5.55-1.37-2.34-2.06-5-2.06-7.97v-24.44h6.47v24.38c0,1.91.4,3.57,1.21,4.98s1.91,2.5,3.29,3.27c1.39.77,2.95,1.15,4.67,1.15s3.32-.38,4.67-1.15c1.35-.77,2.42-1.86,3.21-3.27.79-1.41,1.18-3.05,1.18-4.93v-24.44h6.47v24.49c0,2.97-.68,5.61-2.03,7.94-1.35,2.33-3.19,4.17-5.52,5.52-2.33,1.35-4.99,2.03-7.99,2.03Z"/>
        <path class="cls-3" d="M114.63,318.25v-39.41h6.47v39.41h-6.47ZM119.08,318.25v-5.63h11.32c1.99,0,3.53-.62,4.62-1.86,1.09-1.24,1.63-2.66,1.63-4.28,0-1.09-.25-2.1-.73-3.04-.49-.94-1.2-1.69-2.14-2.25-.94-.56-2.06-.84-3.38-.84h-11.32v-5.63h10.36c1.69,0,3.04-.43,4.05-1.3,1.01-.86,1.52-2.14,1.52-3.83s-.51-2.97-1.52-3.83c-1.01-.86-2.37-1.3-4.05-1.3h-10.36v-5.63h10.53c2.66,0,4.88.49,6.64,1.46,1.76.98,3.08,2.23,3.94,3.77.86,1.54,1.3,3.19,1.3,4.95,0,2.06-.57,3.88-1.72,5.46-1.15,1.58-2.83,2.85-5.04,3.83l.51-2.03c2.48,1.01,4.41,2.44,5.8,4.28,1.39,1.84,2.08,4,2.08,6.47,0,2.03-.5,3.88-1.49,5.57-.99,1.69-2.46,3.05-4.39,4.08-1.93,1.03-4.31,1.55-7.12,1.55h-11.04Z"/>
        <path class="cls-3" d="M150.78,318.25v-39.41h6.47v39.41h-6.47ZM155.23,284.75v-5.91h21.79v5.91h-21.79ZM155.23,300.97v-5.69h20.16v5.69h-20.16ZM155.23,318.25v-5.91h22.07v5.91h-22.07Z"/>
        <path class="cls-3" d="M185.12,318.25v-39.41h6.47v39.41h-6.47ZM189.57,301.53v-5.35h9.97c1.99,0,3.54-.52,4.65-1.55,1.11-1.03,1.66-2.47,1.66-4.31,0-1.65-.54-3.04-1.63-4.17-1.09-1.13-2.63-1.69-4.62-1.69h-10.02v-5.63h10.3c2.48,0,4.65.5,6.53,1.49,1.88.99,3.33,2.35,4.36,4.05,1.03,1.71,1.55,3.65,1.55,5.83,0,2.29-.52,4.28-1.55,5.97-1.03,1.69-2.49,3-4.36,3.94-1.88.94-4.05,1.41-6.53,1.41h-10.3ZM206.74,318.25l-13.79-17.12,6.02-2.2,15.93,19.31h-8.16Z"/>
        <path class="cls-3" d="M245.93,318.81c-2.7,0-5.06-.52-7.07-1.55-2.01-1.03-3.57-2.46-4.67-4.28-1.11-1.82-1.66-3.89-1.66-6.22s.65-4.49,1.94-6.36,3.2-3.4,5.71-4.56l2.87,3.77c-1.39.75-2.46,1.68-3.21,2.79s-1.13,2.51-1.13,4.19c0,1.35.31,2.5.93,3.43.62.94,1.49,1.66,2.62,2.17,1.13.51,2.42.76,3.88.76,1.91,0,3.5-.4,4.76-1.18,1.26-.79,2.2-1.73,2.84-2.82l4.05,4.73c-.79.98-1.8,1.85-3.04,2.62-1.24.77-2.61,1.38-4.11,1.83-1.5.45-3.08.68-4.73.68ZM259.38,318.25l-18.69-20.44c-1.39-1.54-2.43-3-3.13-4.39-.69-1.39-1.04-2.93-1.04-4.62,0-1.99.49-3.78,1.46-5.38.98-1.6,2.31-2.86,4-3.8s3.62-1.41,5.8-1.41c1.65,0,3.15.27,4.5.82,1.35.54,2.54,1.26,3.58,2.14,1.03.88,1.89,1.85,2.56,2.9l-4.45,3.94c-.83-1.13-1.72-2.05-2.67-2.76-.96-.71-2.13-1.07-3.52-1.07s-2.63.42-3.6,1.27c-.98.85-1.46,1.91-1.46,3.18s.26,2.33.79,3.15c.53.83,1.26,1.78,2.2,2.87l21.11,23.59h-7.43Z"/>
        <path class="cls-3" d="M283.03,318.25v-39.41h4.5l1.97,7.43v31.98h-6.47ZM310.34,318.25l-23.59-30.8.79-8.62,23.59,30.8-.79,8.61ZM310.34,318.25l-1.97-6.92v-32.49h6.47v39.41h-4.5Z"/>
        <path class="cls-3" d="M321.6,318.25l16.21-39.41h4.5l16.1,39.41h-6.98l-12.61-31.92h2.37l-12.72,31.92h-6.87ZM329.59,310.65v-5.63h20.89v5.63h-20.89Z"/>
        <path class="cls-3" d="M383.08,318.81c-2.85,0-5.49-.52-7.91-1.55-2.42-1.03-4.53-2.48-6.33-4.34s-3.19-4.02-4.17-6.47c-.98-2.46-1.46-5.1-1.46-7.91s.49-5.45,1.46-7.91c.98-2.46,2.36-4.61,4.17-6.45s3.91-3.28,6.33-4.34c2.42-1.05,5.06-1.58,7.91-1.58,3.19,0,5.95.53,8.28,1.58s4.39,2.48,6.19,4.28l-4.39,4.39c-1.16-1.27-2.58-2.27-4.25-2.98-1.67-.71-3.61-1.07-5.83-1.07-1.95,0-3.73.34-5.35,1.01-1.61.68-3.01,1.64-4.19,2.9-1.18,1.26-2.09,2.75-2.73,4.48-.64,1.73-.96,3.62-.96,5.69s.32,3.96.96,5.69c.64,1.73,1.55,3.22,2.73,4.48,1.18,1.26,2.58,2.22,4.19,2.9,1.61.68,3.4,1.01,5.35,1.01,2.4,0,4.44-.36,6.11-1.1,1.67-.73,3.09-1.74,4.25-3.01l4.39,4.39c-1.8,1.84-3.92,3.28-6.36,4.33-2.44,1.05-5.24,1.58-8.39,1.58Z"/>
        <path class="cls-3" d="M404.76,318.25v-39.41h6.47v39.41h-6.47ZM409.2,300.8v-5.91h22.01v5.91h-22.01ZM429.81,318.25v-39.41h6.47v39.41h-6.47Z"/>
        <path class="cls-3" d="M445.97,318.25v-39.41h6.47v39.41h-6.47ZM450.42,300.8v-5.91h22.01v5.91h-22.01ZM471.02,318.25v-39.41h6.47v39.41h-6.47Z"/>
        <path class="cls-3" d="M484.25,318.25l16.21-39.41h4.5l16.1,39.41h-6.98l-12.61-31.92h2.36l-12.72,31.92h-6.87ZM492.25,310.65v-5.63h20.89v5.63h-20.89Z"/>
        <path class="cls-3" d="M527.83,318.25v-39.41h6.47v39.41h-6.47ZM532.28,318.25v-5.91h20.61v5.91h-20.61Z"/>
        <path class="cls-3" d="M552.15,284.75v-5.91h32.15v5.91h-32.15ZM564.99,318.25v-38.29h6.47v38.29h-6.47Z"/>
        <path class="cls-3" d="M591.06,318.25v-39.41h6.47v39.41h-6.47Z"/>
        <path class="cls-3" d="M625.01,318.81c-2.7,0-5.26-.53-7.66-1.58-2.4-1.05-4.5-2.51-6.31-4.36-1.8-1.86-3.22-4.02-4.25-6.47-1.03-2.46-1.55-5.1-1.55-7.91s.52-5.44,1.55-7.88c1.03-2.44,2.46-4.59,4.28-6.45,1.82-1.86,3.96-3.3,6.42-4.34,2.46-1.03,5.11-1.55,7.97-1.55,3.11,0,6.01.6,8.67,1.8,2.66,1.2,4.9,2.91,6.7,5.12l-4.39,4.39c-1.16-1.65-2.72-2.92-4.67-3.8-1.95-.88-4.05-1.32-6.31-1.32-2.7,0-5.08.59-7.12,1.77-2.05,1.18-3.63,2.83-4.76,4.93-1.13,2.1-1.69,4.54-1.69,7.32s.57,5.23,1.72,7.35c1.14,2.12,2.69,3.78,4.65,4.98,1.95,1.2,4.17,1.8,6.64,1.8,2.63,0,4.89-.48,6.78-1.44,1.9-.96,3.35-2.38,4.36-4.28,1.01-1.89,1.52-4.23,1.52-7.01l4.05,2.93h-16.83v-5.91h19.48v.9c0,4.69-.84,8.6-2.51,11.71-1.67,3.12-3.95,5.44-6.84,6.98-2.89,1.54-6.19,2.31-9.91,2.31Z"/>
      </g>
      <g>
        <g>
          <path class="cls-2" d="M261.64,92.64h.02c.11-7.33,6.1-13.26,13.45-13.26h23.22v-7.67h9.16v-19.32h3.75l-2.76-31.76c-44.09,6.6-77.91,44.63-77.91,90.56,0,27.38,12.02,51.96,31.08,68.74v-87.29Z"/>
          <path class="cls-2" d="M335.79,20.63l-2.76,31.76h3.75v19.32h9.16v7.67h23.22c7.35,0,13.34,5.93,13.45,13.26h.02v87.29c19.05-16.78,31.08-41.35,31.08-68.74,0-45.93-33.82-83.96-77.91-90.56Z"/>
        </g>
        <g>
          <path class="cls-4" d="M268.37,93.73h107.53v133.14c0,1.5-1.22,2.72-2.72,2.72h-102.09c-1.5,0-2.72-1.22-2.72-2.72V93.73h0Z"/>
          <g>
            <polygon class="cls-5" points="289.94 122.73 287.37 113.91 284.8 122.73 287.37 131.54 289.94 122.73"/>
            <polygon class="cls-5" points="287.37 125.29 296.19 122.73 287.37 120.16 278.55 122.73 287.37 125.29"/>
          </g>
          <g>
            <polygon class="cls-5" points="350.49 170.05 346.88 157.63 343.26 170.05 346.88 182.46 350.49 170.05"/>
            <polygon class="cls-5" points="346.88 173.66 359.29 170.05 346.88 166.43 334.47 170.05 346.88 173.66"/>
          </g>
          <g>
            <polygon class="cls-5" points="345.02 125.51 343.26 119.47 341.51 125.51 343.26 131.54 345.02 125.51"/>
            <polygon class="cls-5" points="343.26 127.27 349.3 125.51 343.26 123.75 337.23 125.51 343.26 127.27"/>
          </g>
          <g>
            <polygon class="cls-5" points="290.99 166.43 289.94 162.82 288.89 166.43 289.94 170.05 290.99 166.43"/>
            <polygon class="cls-5" points="289.94 167.48 293.55 166.43 289.94 165.38 286.33 166.43 289.94 167.48"/>
          </g>
          <g>
            <polygon class="cls-5" points="356.7 145.09 355.65 141.47 354.6 145.09 355.65 148.7 356.7 145.09"/>
            <polygon class="cls-5" points="355.65 146.14 359.26 145.09 355.65 144.03 352.04 145.09 355.65 146.14"/>
          </g>
          <g>
            <polygon class="cls-5" points="309.49 147.51 307.73 141.47 305.97 147.51 307.73 153.55 309.49 147.51"/>
            <polygon class="cls-5" points="307.73 149.27 313.77 147.51 307.73 145.75 301.7 147.51 307.73 149.27"/>
          </g>
        </g>
        <path class="cls-3" d="M268.65,105.83h106.96c1.11,0,2.01-.9,2.01-2.01v-9.24c0-5.78-4.69-10.47-10.47-10.47h-24.2c-1.11,0-2.01-.9-2.01-2.01v-3.65c0-1.11-.9-2.01-2.01-2.01h-5.14c-1.11,0-2.01-.9-2.01-2.01v-15.31c0-1.11-.9-2.01-2.01-2.01h0c-1.18,0-2.1-1.01-2-2.18l3.87-44.57c.48-5.58-3.91-10.37-9.51-10.37h0c-5.6,0-9.99,4.79-9.51,10.37l3.87,44.57c.1,1.17-.82,2.18-2,2.18h0c-1.11,0-2.01.9-2.01,2.01v15.31c0,1.11-.9,2.01-2.01,2.01h-5.14c-1.11,0-2.01.9-2.01,2.01v3.65c0,1.11-.9,2.01-2.01,2.01h-24.2c-5.78,0-10.47,4.69-10.47,10.47v9.24c0,1.11.9,2.01,2.01,2.01Z"/>
        <g>
          <path class="cls-3" d="M292.96,218.63c-2.46,0-4.6-.36-6.42-1.07-1.82-.72-3.5-1.86-5.04-3.42l5.06-5.07c1.05,1,2.16,1.76,3.32,2.29,1.16.53,2.4.79,3.73.79,1.11,0,1.94-.17,2.51-.51s.85-.8.85-1.4-.24-1.09-.73-1.48c-.49-.39-1.13-.74-1.92-1.05-.8-.31-1.68-.63-2.63-.95-.96-.32-1.91-.71-2.86-1.17-.95-.46-1.82-1.02-2.61-1.68-.8-.66-1.44-1.49-1.92-2.47-.49-.99-.73-2.19-.73-3.63,0-1.86.45-3.47,1.34-4.82.89-1.35,2.15-2.38,3.77-3.1,1.62-.71,3.53-1.07,5.71-1.07s4.17.34,6.02,1.03,3.38,1.67,4.6,2.94l-5.11,5.06c-.89-.86-1.78-1.5-2.67-1.92-.89-.42-1.86-.63-2.92-.63-.84,0-1.51.14-2.01.41-.5.27-.75.68-.75,1.22,0,.57.24,1.03.73,1.4.49.37,1.13.7,1.92.99.8.3,1.67.61,2.63.93s1.91.71,2.86,1.16c.95.45,1.82,1.01,2.61,1.7.8.69,1.44,1.55,1.92,2.57.49,1.03.73,2.27.73,3.73,0,2.94-1.05,5.22-3.14,6.83-2.09,1.61-5.04,2.41-8.85,2.41Z"/>
          <path class="cls-2" d="M317.51,218.63c-1.95,0-3.64-.4-5.09-1.2-1.45-.8-2.57-1.87-3.36-3.22-.8-1.35-1.2-2.85-1.2-4.5,0-1.84.47-3.48,1.42-4.92.95-1.44,2.4-2.61,4.38-3.5l3.24,5.35c-.62.19-1.07.51-1.36.97-.28.46-.42.95-.42,1.46,0,.41.09.8.28,1.18.19.38.47.69.85.93s.84.36,1.38.36c.46,0,.9-.11,1.34-.34.43-.23.86-.66,1.3-1.28l5.47,5.23c-.38.49-.97,1-1.76,1.54s-1.75,1-2.86,1.38-2.31.57-3.61.57ZM326.59,218.14l-12.8-14.14c-1.03-1.16-1.75-2.25-2.17-3.28-.42-1.03-.63-2.15-.63-3.36,0-1.48.38-2.88,1.15-4.17s1.84-2.35,3.2-3.16c1.36-.81,2.95-1.22,4.76-1.22,1.46,0,2.74.2,3.83.59s2.02.88,2.78,1.46c.76.58,1.31,1.16,1.66,1.72l-5.06,5.06c-.49-.67-.97-1.13-1.46-1.36s-1-.34-1.54-.34c-.59,0-1.07.17-1.44.51-.36.34-.55.74-.55,1.2,0,.3.07.61.22.93.15.32.37.66.67,1.01l16.53,18.56h-9.16Z"/>
          <path class="cls-3" d="M336.84,218.14v-28.85h5.67l2.43,6.08v22.77h-8.1ZM356.69,218.14l-16.73-21.03,2.55-7.82,16.73,21.03-2.55,7.82ZM356.69,218.14l-2.03-6.4v-22.45h8.1v28.85h-6.08Z"/>
        </g>
      </g>
      <g>
        <path class="cls-1" d="M156.98,359.27c-1.26,0-2.44-.24-3.56-.73-1.12-.49-2.09-1.16-2.93-2.03-.84-.86-1.49-1.87-1.97-3.01-.48-1.14-.72-2.37-.72-3.67s.24-2.53.72-3.66c.48-1.13,1.14-2.13,1.99-2.99s1.84-1.53,2.98-2.01,2.37-.72,3.7-.72c1.45,0,2.79.28,4.03.84,1.24.56,2.27,1.35,3.11,2.38l-2.04,2.04c-.54-.77-1.26-1.36-2.17-1.77s-1.88-.62-2.93-.62c-1.25,0-2.36.27-3.31.82-.95.55-1.69,1.31-2.21,2.29-.52.98-.78,2.11-.78,3.4s.26,2.43.8,3.41c.53.99,1.25,1.76,2.16,2.31.91.56,1.93.84,3.09.84,1.22,0,2.27-.22,3.15-.67s1.56-1.11,2.03-1.99c.47-.88.71-1.97.71-3.26l1.88,1.36h-7.82v-2.75h9.05v.42c0,2.18-.39,3.99-1.16,5.44-.78,1.45-1.83,2.53-3.18,3.24-1.34.72-2.88,1.07-4.6,1.07Z"/>
        <path class="cls-1" d="M174.66,359.01v-18.3h3.01v18.3h-3.01ZM176.73,343.45v-2.75h10.12v2.75h-10.12ZM176.73,350.98v-2.64h9.36v2.64h-9.36ZM176.73,359.01v-2.75h10.25v2.75h-10.25Z"/>
        <path class="cls-1" d="M195.84,359.01v-18.3h3.01v18.3h-3.01ZM197.91,359.01v-2.62h5.26c.92,0,1.64-.29,2.14-.86.51-.57.76-1.24.76-1.99,0-.51-.11-.98-.34-1.41-.23-.44-.56-.79-.99-1.05-.44-.26-.96-.39-1.57-.39h-5.26v-2.62h4.81c.79,0,1.41-.2,1.88-.6.47-.4.71-.99.71-1.78s-.24-1.38-.71-1.78c-.47-.4-1.1-.6-1.88-.6h-4.81v-2.61h4.89c1.24,0,2.27.23,3.09.68s1.43,1.04,1.83,1.75c.4.72.6,1.48.6,2.3,0,.96-.27,1.8-.8,2.54s-1.31,1.32-2.34,1.78l.24-.94c1.15.47,2.05,1.13,2.69,1.99.64.85.97,1.86.97,3.01,0,.94-.23,1.8-.69,2.59-.46.79-1.14,1.42-2.04,1.9-.9.48-2,.72-3.31.72h-5.13Z"/>
        <path class="cls-1" d="M216.5,359.01l7.53-18.3h2.09l7.48,18.3h-3.24l-5.86-14.83h1.1l-5.91,14.83h-3.19ZM220.21,355.48v-2.61h9.7v2.61h-9.7ZM222.31,338.66c-.49,0-.89-.17-1.22-.5s-.48-.74-.48-1.23.16-.9.48-1.23.73-.5,1.22-.5.92.17,1.23.5.47.74.47,1.23-.16.9-.47,1.23-.72.5-1.23.5ZM227.8,338.66c-.49,0-.89-.17-1.22-.5s-.48-.74-.48-1.23.16-.9.48-1.23.73-.5,1.22-.5.92.17,1.23.5.47.74.47,1.23-.16.9-.47,1.23-.72.5-1.23.5Z"/>
        <path class="cls-1" d="M249.03,359.27c-1.38,0-2.61-.31-3.71-.94-1.1-.63-1.97-1.49-2.6-2.58-.64-1.09-.95-2.32-.95-3.7v-11.35h3.01v11.32c0,.89.19,1.66.56,2.31.37.65.88,1.16,1.53,1.52s1.37.54,2.17.54,1.54-.18,2.17-.54,1.12-.86,1.49-1.52c.37-.65.55-1.42.55-2.29v-11.35h3.01v11.37c0,1.38-.31,2.61-.94,3.69-.63,1.08-1.48,1.93-2.56,2.56s-2.32.94-3.71.94Z"/>
        <path class="cls-1" d="M265.77,359.01v-18.3h3.01v18.3h-3.01ZM267.83,359.01v-2.75h4.81c1.26,0,2.36-.27,3.31-.81s1.69-1.29,2.22-2.26c.53-.97.8-2.09.8-3.36s-.27-2.36-.81-3.32c-.54-.96-1.29-1.71-2.24-2.25-.95-.54-2.05-.81-3.28-.81h-4.81v-2.75h4.89c1.32,0,2.55.23,3.69.69s2.12,1.11,2.97,1.94c.84.83,1.5,1.8,1.97,2.9.47,1.11.71,2.31.71,3.62s-.24,2.49-.71,3.61c-.47,1.12-1.12,2.09-1.96,2.92-.84.83-1.82,1.47-2.95,1.94s-2.35.69-3.66.69h-4.94Z"/>
        <path class="cls-1" d="M290.87,359.01v-18.3h3.01v18.3h-3.01ZM292.93,343.45v-2.75h10.12v2.75h-10.12ZM292.93,350.98v-2.64h9.36v2.64h-9.36ZM292.93,359.01v-2.75h10.25v2.75h-10.25Z"/>
        <path class="cls-1" d="M312.05,359.01v-18.3h3.01v18.3h-3.01ZM314.12,351.24v-2.48h4.63c.92,0,1.64-.24,2.16-.72.51-.48.77-1.15.77-2,0-.77-.25-1.41-.76-1.93-.51-.52-1.22-.79-2.14-.79h-4.66v-2.61h4.79c1.15,0,2.16.23,3.03.69.87.46,1.55,1.09,2.03,1.88.48.79.72,1.7.72,2.71,0,1.06-.24,1.99-.72,2.77s-1.15,1.39-2.03,1.83c-.87.44-1.88.65-3.03.65h-4.79ZM322.09,359.01l-6.41-7.95,2.8-1.02,7.4,8.97h-3.79Z"/>
        <path class="cls-1" d="M333.86,359.01v-18.3h3.01v18.3h-3.01ZM335.92,343.45v-2.75h10.12v2.75h-10.12ZM335.92,350.98v-2.64h9.36v2.64h-9.36ZM335.92,359.01v-2.75h10.25v2.75h-10.25Z"/>
        <path class="cls-1" d="M355.04,359.01v-18.3h3.01v18.3h-3.01Z"/>
        <path class="cls-1" d="M367.78,359.01v-18.3h2.09l.92,3.45v14.85h-3.01ZM380.46,359.01l-10.96-14.3.37-4,10.96,14.3-.37,4ZM380.46,359.01l-.92-3.22v-15.09h3.01v18.3h-2.09Z"/>
        <path class="cls-1" d="M392.28,359.01v-18.3h3.01v18.3h-3.01Z"/>
        <path class="cls-1" d="M413.28,359.27c-1.26,0-2.44-.24-3.56-.73-1.12-.49-2.09-1.16-2.93-2.03s-1.49-1.87-1.97-3.01c-.48-1.14-.72-2.37-.72-3.67s.24-2.53.72-3.66c.48-1.13,1.14-2.13,1.99-2.99s1.84-1.53,2.98-2.01,2.37-.72,3.7-.72c1.45,0,2.79.28,4.03.84,1.24.56,2.27,1.35,3.11,2.38l-2.04,2.04c-.54-.77-1.26-1.36-2.17-1.77s-1.88-.62-2.93-.62c-1.25,0-2.36.27-3.31.82-.95.55-1.69,1.31-2.21,2.29-.52.98-.78,2.11-.78,3.4s.26,2.43.8,3.41c.53.99,1.25,1.76,2.16,2.31.91.56,1.93.84,3.09.84,1.22,0,2.27-.22,3.15-.67s1.56-1.11,2.03-1.99c.47-.88.71-1.97.71-3.26l1.88,1.36h-7.82v-2.75h9.05v.42c0,2.18-.39,3.99-1.16,5.44-.78,1.45-1.83,2.53-3.18,3.24-1.34.72-2.88,1.07-4.6,1.07Z"/>
        <path class="cls-1" d="M438.01,359.27c-1.38,0-2.61-.31-3.71-.94-1.1-.63-1.97-1.49-2.6-2.58-.64-1.09-.95-2.32-.95-3.7v-11.35h3.01v11.32c0,.89.19,1.66.56,2.31.37.65.88,1.16,1.53,1.52s1.37.54,2.17.54,1.54-.18,2.17-.54,1.12-.86,1.49-1.52c.37-.65.55-1.42.55-2.29v-11.35h3.01v11.37c0,1.38-.31,2.61-.94,3.69-.63,1.08-1.48,1.93-2.56,2.56s-2.32.94-3.71.94Z"/>
        <path class="cls-1" d="M454.75,359.01v-18.3h2.09l.92,3.45v14.85h-3.01ZM467.43,359.01l-10.96-14.3.37-4,10.96,14.3-.37,4ZM467.43,359.01l-.92-3.22v-15.09h3.01v18.3h-2.09Z"/>
        <path class="cls-1" d="M487.52,359.27c-1.26,0-2.44-.24-3.56-.73-1.12-.49-2.09-1.16-2.93-2.03-.84-.86-1.49-1.87-1.97-3.01-.48-1.14-.72-2.37-.72-3.67s.24-2.53.72-3.66c.48-1.13,1.14-2.13,1.99-2.99.85-.86,1.84-1.53,2.98-2.01s2.37-.72,3.7-.72c1.45,0,2.79.28,4.03.84,1.24.56,2.27,1.35,3.11,2.38l-2.04,2.04c-.54-.77-1.26-1.36-2.17-1.77s-1.88-.62-2.93-.62c-1.25,0-2.36.27-3.31.82-.95.55-1.69,1.31-2.21,2.29-.52.98-.78,2.11-.78,3.4s.26,2.43.8,3.41c.53.99,1.25,1.76,2.16,2.31.91.56,1.93.84,3.09.84,1.22,0,2.27-.22,3.15-.67s1.56-1.11,2.03-1.99c.47-.88.71-1.97.71-3.26l1.88,1.36h-7.82v-2.75h9.05v.42c0,2.18-.39,3.99-1.16,5.44-.78,1.45-1.83,2.53-3.18,3.24-1.34.72-2.88,1.07-4.6,1.07Z"/>
      </g>
    </g>
  </g>
</svg>